<?xml version="1.0" encoding="UTF-8"?>
<!DOCTYPE svg PUBLIC "-//W3C//DTD SVG 1.1//EN" "http://www.w3.org/Graphics/SVG/1.1/DTD/svg11.dtd">
<svg version="1.1" xmlns="http://www.w3.org/2000/svg" xmlns:xlink="http://www.w3.org/1999/xlink" x="0" y="0" width="432" height="120" viewBox="0, 0, 432, 120">
  <g id="レイヤー_1">
    <text transform="matrix(1, 0, 0, 1, 308.98, 81.183)">
      <tspan x="-166.933" y="14.277" font-family="uzura_font" font-size="115" fill="#3E3E3E">Judge</tspan>
    </text>
    <path d="M80.723,29.582 C95.397,30.044 110.121,30.752 124.658,32.932 C128.299,33.478 136.632,34.386 139.683,37.033 C146.109,43.799 138.064,93.624 131.811,98.959 C129.443,100.439 126.12,100.747 123.48,101.111 C119.484,101.664 114.637,102.057 110.66,102.319 C100.516,102.989 90.365,103.164 80.203,103.239 C80.101,102.567 80.124,101.842 80.12,101.171 C80.067,92.631 80.233,84.086 80.309,75.547 C80.447,60.225 80.587,44.904 80.723,29.582 z" fill="#333333"/>
    <path d="M70.589,29.473 L74.475,29.478 C80.062,29.574 77.966,29.511 80.766,29.602 C80.113,102.813 80.073,102.423 80.253,103.309 C77.45,103.355 74.647,103.344 71.844,103.349 C66.956,103.311 62.07,103.171 57.185,103.021 C54.742,102.947 52.303,102.791 49.862,102.675 C45.714,102.442 41.557,102.152 37.437,101.599 C35.189,101.297 32.081,100.972 30.107,99.753 C23.115,94.569 8.986,46.233 24.232,35.513 C30.23,31.938 38.926,31.084 45.763,30.455 C54.015,29.679 62.308,29.58 70.589,29.473 L70.589,29.473 z" fill="#FFFFFF"/>
  </g>
</svg>
