<?xml version="1.0" encoding="UTF-8"?>
<!DOCTYPE svg PUBLIC "-//W3C//DTD SVG 1.1//EN" "http://www.w3.org/Graphics/SVG/1.1/DTD/svg11.dtd">
<svg version="1.1" xmlns="http://www.w3.org/2000/svg" xmlns:xlink="http://www.w3.org/1999/xlink" x="0" y="0" width="426" height="146" viewBox="0, 0, 426, 146">
  <g id="レイヤー_1">
    <g>
      <text transform="matrix(1, 0, 0, 1, 275.312, 72)">
        <tspan x="-148.433" y="28.277" font-family="uzura_font" font-size="115" fill="#3E3E3E">Judge</tspan>
      </text>
      <g>
        <path d="M65.556,34.4 C80.23,34.862 94.954,35.57 109.49,37.749 C113.132,38.295 121.465,39.203 124.516,41.85 C130.942,48.617 122.897,98.441 116.644,103.777 C114.276,105.257 110.952,105.564 108.313,105.929 C104.317,106.481 99.47,106.874 95.493,107.137 C85.349,107.807 75.198,107.982 65.036,108.057 C64.934,107.385 64.957,106.659 64.952,105.989 C64.9,97.449 65.065,88.903 65.142,80.364 C65.28,65.043 65.419,49.721 65.556,34.4 z" fill="#333333"/>
        <path d="M55.422,34.29 L59.308,34.296 C64.895,34.391 62.799,34.328 65.599,34.42 C64.946,107.63 64.905,107.24 65.086,108.126 C62.283,108.172 59.48,108.161 56.676,108.167 C51.789,108.128 46.903,107.989 42.018,107.839 C39.575,107.764 37.136,107.608 34.695,107.493 C30.547,107.259 26.39,106.969 22.269,106.416 C20.022,106.115 16.914,105.789 14.939,104.571 C7.948,99.386 -6.181,51.05 9.064,40.33 C15.063,36.755 23.759,35.901 30.596,35.272 C38.848,34.496 47.141,34.398 55.422,34.29 L55.422,34.29 z" fill="#FCFCFC"/>
      </g>
    </g>
  </g>
</svg>
