<svg id="レイヤー_1" data-name="レイヤー 1" xmlns="http://www.w3.org/2000/svg" viewBox="0 0 1079.79 515.17"><defs><style>.cls-1{fill:#1ebc4d;}.cls-2{fill:#58e481;}.cls-3,.cls-4,.cls-5{fill:none;stroke:#fff;stroke-linecap:round;stroke-linejoin:round;stroke-width:3px;}.cls-4{stroke-dasharray:0 17.45 0 0;}.cls-5{stroke-dasharray:17.45 0 0 17.45 0 0;}.cls-6{fill:#212121;}.cls-7{fill:#333;}.cls-8{fill:#e63870;}</style></defs><rect class="cls-1" x="1.5" y="266.61" width="217" height="217"/><rect class="cls-2" x="1.5" y="343.47" width="140.15" height="140.15"/><polyline class="cls-3" points="141.65 352.46 141.65 343.46 132.65 343.46"/><line class="cls-4" x1="132.65" y1="343.47" x2="116.2" y2="343.47"/><line class="cls-5" x1="115.2" y1="343.47" x2="10.5" y2="343.47"/><polyline class="cls-3" points="10.5 343.46 1.5 343.46 1.5 352.46"/><line class="cls-4" x1="1.5" y1="352.47" x2="1.5" y2="368.91"/><line class="cls-5" x1="1.5" y1="369.91" x2="1.5" y2="474.61"/><polyline class="cls-3" points="1.5 474.61 1.5 483.61 10.5 483.61"/><line class="cls-4" x1="10.5" y1="483.61" x2="26.95" y2="483.61"/><line class="cls-5" x1="27.95" y1="483.61" x2="132.65" y2="483.61"/><polyline class="cls-3" points="132.65 483.61 141.65 483.61 141.65 474.61"/><line class="cls-4" x1="141.65" y1="474.61" x2="141.65" y2="458.16"/><line class="cls-5" x1="141.65" y1="457.16" x2="141.65" y2="352.47"/><path class="cls-6" d="M321.58,336.16a11.36,11.36,0,0,1,2.08,6.56c0,7.15-6.25,11.62-12.81,11.62a12.43,12.43,0,0,1-11-6l-56-99.23H175v93c0,8.65-5.36,12.22-12.22,12.22-6.55,0-11.92-3.57-11.92-12.22V156.77c0-23,7.75-31.59,33.38-31.59h55.43c52.15,0,72.11,25.33,72.11,61.68,0,27.72-14.3,49.47-44.4,58.71ZM189,145.74c-10.14,0-14,3.58-14,12.52v70.62H239c34.87,0,48.28-18.77,48.28-42,0-23.54-12.82-41.12-47.68-41.12Z" transform="translate(-150.5 -123.39)"/><path class="cls-6" d="M362.69,281.93c1.79,37.84,21.16,56,46.79,56,20,0,31.59-10.13,39.64-29.2,2.08-5.07,5.66-7.45,9.53-7.45,5.66,0,12.52,3.87,12.52,10.13a13.85,13.85,0,0,1-1.19,5.66c-11.63,23.54-29.21,39-60.5,39-44.4,0-68.84-34.27-68.84-79.27,0-44.4,25-78.67,69.14-78.67,44.7,0,63.47,40.53,63.47,64.66,0,13.12-4.17,19.08-17.58,19.08ZM447,264.05c3,0,4.47-2.09,4.47-5.07a20.13,20.13,0,0,0-.6-4.47c-4.76-21.46-17.58-38.14-41.12-38.14-24.44,0-42.32,17-46.49,47.68Z" transform="translate(-150.5 -123.39)"/><path class="cls-6" d="M548.94,283.12c-34.27-8.94-50.06-17.58-50.06-44.11,0-23.24,19.07-40.82,54.53-40.82,33.08,0,48,15.49,52.75,32.48a23.15,23.15,0,0,1,.59,4.17c0,7.15-6.25,9.54-12.51,9.54-3.87,0-8.35-1.79-9.84-7.45-3.57-13.71-13.11-20.56-31.29-20.56-19.07,0-32.18,7.15-32.18,22.64,0,16.1,14,18.78,36.06,24.44l8.64,2.09c34.57,8.94,47.08,18.77,47.08,45.89,0,25.93-20.56,44.7-58.4,44.7-35.76,0-54.84-17.88-59.31-36.65a26.89,26.89,0,0,1-.89-5.67c0-6.85,5.07-10.13,11.62-10.13,5.37,0,9.84,2.39,11,9.54,1.79,13.71,17,24.73,37.84,24.73,21.46,0,36.06-8.94,36.06-27.12,0-14.3-11.32-19.66-34-25.62Z" transform="translate(-150.5 -123.39)"/><path class="cls-6" d="M673.5,141c0,9.24-8.34,17.58-17.88,17.58-9.24,0-17.28-8.34-17.28-17.58,0-9.53,8-17.58,17.28-17.58C665.16,123.39,673.5,131.44,673.5,141ZM667,343.61c0,7.75-5.66,10.73-11.33,10.73-5.36,0-11-3-11-10.73V210.7c0-7.45,5.66-10.72,11-10.72,5.67,0,11.33,3.27,11.33,10.72Z" transform="translate(-150.5 -123.39)"/><path class="cls-6" d="M803.43,333.48c7.15,0,9.83,3.88,9.83,8.94s-2.68,9.84-9.83,9.84H705.68c-7.45,0-11-5.07-11-11a14.63,14.63,0,0,1,3-8.94l83.74-111.75H710.15c-7.15,0-9.83-4.17-9.83-9.24,0-4.77,2.68-9.54,9.83-9.54h87.91c7.45,0,11.33,4.77,11.33,10.43a15.73,15.73,0,0,1-3.28,8.94L722.37,333.48Z" transform="translate(-150.5 -123.39)"/><path class="cls-6" d="M853.79,281.93c1.78,37.84,21.15,56,46.78,56,20,0,31.59-10.13,39.64-29.2,2.08-5.07,5.66-7.45,9.53-7.45,5.67,0,12.52,3.87,12.52,10.13a13.85,13.85,0,0,1-1.19,5.66c-11.62,23.54-29.21,39-60.5,39-44.4,0-68.84-34.27-68.84-79.27,0-44.4,25-78.67,69.14-78.67,44.7,0,63.48,40.53,63.48,64.66,0,13.12-4.18,19.08-17.59,19.08Zm84.33-17.88c3,0,4.47-2.09,4.47-5.07a20.76,20.76,0,0,0-.59-4.47c-4.77-21.46-17.59-38.14-41.13-38.14-24.44,0-42.32,17-46.49,47.68Z" transform="translate(-150.5 -123.39)"/><path class="cls-7" d="M1202.41,293.24" transform="translate(-150.5 -123.39)"/><path class="cls-7" d="M1147.67,166.51" transform="translate(-150.5 -123.39)"/><path class="cls-6" d="M786.58,426.57a24,24,0,0,1,1.49,6.86c0,8.34-7.16,11.92-14.31,11.92-4.77,0-8.34-2.68-10.73-9.84-6.55-19.07-23.84-40.82-59.6-40.82-44.7,0-73,35.46-73,95.36,0,59.6,28,96.85,72.71,96.85,36.06,0,53.94-22.65,62.58-48.87,2.39-6.56,5.67-10.43,11-10.43,6.86,0,14,3.87,14,11.32a22.44,22.44,0,0,1-1.19,7.15c-9.24,26.53-32.19,62-86.43,62-64.07,0-97.14-50.66-97.14-118,0-67.65,33.67-116.52,97.44-116.52C749,373.53,776.44,399.75,786.58,426.57Z" transform="translate(-150.5 -123.39)"/><path class="cls-6" d="M860.47,604.18c-25.63,0-33.37-8.94-33.37-31.58V408.69c0-22.94,7.74-31.59,33.37-31.59h39.34c74.2,0,110,44.71,110,112.65,0,67-35.16,114.43-109.07,114.43ZM900.7,583c54.84,0,84.64-34,84.64-93.28,0-59.6-30.1-91.79-85.53-91.79H865.24c-10.13,0-14,3.58-14,12.82V570.21c0,9.54,3.88,12.82,14,12.82Z" transform="translate(-150.5 -123.39)"/><path class="cls-6" d="M1230.29,588.69c0,12.51-3,17.58-11.92,17.58-9.54,0-13.11-4.47-22-17.58l-92.68-134.4c-11-15.8-20-32.48-30.7-50.07,1.19,18.78,1.49,39,1.49,58.41l.9,131.42c0,8.64-5.67,12.22-12.52,12.22-6.56,0-11.92-3.58-11.92-12.22V392.6c0-11.62,4.47-17.28,14.6-17.28,11,0,14.9,5.66,23.25,17.28L1183.5,530c9.54,13.71,18.18,30.69,25,44.7-1.19-17.58-2.08-37.55-2.08-56.92l-.6-129.93c0-8.34,5.37-12.51,11.92-12.51s12.52,4.17,12.52,12.51Z" transform="translate(-150.5 -123.39)"/><rect class="cls-8" x="1" y="505.17" width="1077" height="10"/></svg>