<svg id="レイヤー_1" data-name="レイヤー 1" xmlns="http://www.w3.org/2000/svg" viewBox="0 0 1771 521.61"><defs><style>.cls-1{fill:#1ebc4d;}.cls-2{fill:#58e481;}.cls-3,.cls-4,.cls-5{fill:none;stroke:#fff;stroke-linecap:round;stroke-linejoin:round;stroke-width:3px;}.cls-4{stroke-dasharray:0 17.45 0 0;}.cls-5{stroke-dasharray:17.45 0 0 17.45 0 0;}.cls-6{fill:#212121;}.cls-7{fill:#333;}.cls-8{fill:#e63870;}</style></defs><rect class="cls-1" x="1.5" y="266.61" width="217" height="217"/><rect class="cls-2" x="1.5" y="343.47" width="140.15" height="140.15"/><polyline class="cls-3" points="141.65 352.46 141.65 343.46 132.65 343.46"/><line class="cls-4" x1="132.65" y1="343.47" x2="116.2" y2="343.47"/><line class="cls-5" x1="115.2" y1="343.47" x2="10.5" y2="343.47"/><polyline class="cls-3" points="10.5 343.46 1.5 343.46 1.5 352.46"/><line class="cls-4" x1="1.5" y1="352.47" x2="1.5" y2="368.91"/><line class="cls-5" x1="1.5" y1="369.91" x2="1.5" y2="474.61"/><polyline class="cls-3" points="1.5 474.61 1.5 483.61 10.5 483.61"/><line class="cls-4" x1="10.5" y1="483.61" x2="26.95" y2="483.61"/><line class="cls-5" x1="27.95" y1="483.61" x2="132.65" y2="483.61"/><polyline class="cls-3" points="132.65 483.61 141.65 483.61 141.65 474.61"/><line class="cls-4" x1="141.65" y1="474.61" x2="141.65" y2="458.16"/><line class="cls-5" x1="141.65" y1="457.16" x2="141.65" y2="352.47"/><path class="cls-6" d="M321.58,301.16a11.36,11.36,0,0,1,2.08,6.56c0,7.15-6.25,11.62-12.81,11.62a12.43,12.43,0,0,1-11-6l-56-99.23H175v93c0,8.65-5.36,12.22-12.22,12.22-6.55,0-11.92-3.57-11.92-12.22V121.77c0-23,7.75-31.59,33.38-31.59h55.43c52.15,0,72.11,25.33,72.11,61.68,0,27.72-14.3,49.47-44.4,58.71ZM189,110.74c-10.14,0-14,3.58-14,12.52v70.62H239c34.87,0,48.28-18.77,48.28-42,0-23.54-12.82-41.12-47.68-41.12Z" transform="translate(-150.5 -88.39)"/><path class="cls-6" d="M362.69,246.93c1.79,37.84,21.16,56,46.79,56,20,0,31.59-10.13,39.64-29.2,2.08-5.07,5.66-7.45,9.53-7.45,5.66,0,12.52,3.87,12.52,10.13a13.85,13.85,0,0,1-1.19,5.66c-11.63,23.54-29.21,39-60.5,39-44.4,0-68.84-34.27-68.84-79.27,0-44.4,25-78.67,69.14-78.67,44.7,0,63.47,40.53,63.47,64.66,0,13.12-4.17,19.08-17.58,19.08ZM447,229.05c3,0,4.47-2.09,4.47-5.07a20.13,20.13,0,0,0-.6-4.47c-4.76-21.46-17.58-38.14-41.12-38.14-24.44,0-42.32,17-46.49,47.68Z" transform="translate(-150.5 -88.39)"/><path class="cls-6" d="M548.94,248.12c-34.27-8.94-50.06-17.58-50.06-44.11,0-23.24,19.07-40.82,54.53-40.82,33.08,0,48,15.49,52.75,32.48a23.15,23.15,0,0,1,.59,4.17c0,7.15-6.25,9.54-12.51,9.54-3.87,0-8.35-1.79-9.84-7.45-3.57-13.71-13.11-20.56-31.29-20.56-19.07,0-32.18,7.15-32.18,22.64,0,16.1,14,18.78,36.06,24.44l8.64,2.09c34.57,8.94,47.08,18.77,47.08,45.89,0,25.93-20.56,44.7-58.4,44.7-35.76,0-54.84-17.88-59.31-36.65a26.89,26.89,0,0,1-.89-5.67c0-6.85,5.07-10.13,11.62-10.13,5.37,0,9.84,2.39,11,9.54,1.79,13.71,17,24.73,37.84,24.73,21.46,0,36.06-8.94,36.06-27.12,0-14.3-11.32-19.66-34-25.62Z" transform="translate(-150.5 -88.39)"/><path class="cls-6" d="M673.5,106c0,9.24-8.34,17.58-17.88,17.58-9.24,0-17.28-8.34-17.28-17.58,0-9.53,8-17.58,17.28-17.58C665.16,88.39,673.5,96.44,673.5,106ZM667,308.61c0,7.75-5.66,10.73-11.33,10.73-5.36,0-11-3-11-10.73V175.7c0-7.45,5.66-10.72,11-10.72,5.67,0,11.33,3.27,11.33,10.72Z" transform="translate(-150.5 -88.39)"/><path class="cls-6" d="M803.43,298.48c7.15,0,9.83,3.88,9.83,8.94s-2.68,9.84-9.83,9.84H705.68c-7.45,0-11-5.07-11-11a14.63,14.63,0,0,1,3-8.94l83.74-111.75H710.15c-7.15,0-9.83-4.17-9.83-9.24,0-4.77,2.68-9.54,9.83-9.54h87.91c7.45,0,11.33,4.77,11.33,10.43a15.73,15.73,0,0,1-3.28,8.94L722.37,298.48Z" transform="translate(-150.5 -88.39)"/><path class="cls-6" d="M853.79,246.93c1.78,37.84,21.15,56,46.78,56,20,0,31.59-10.13,39.64-29.2,2.08-5.07,5.66-7.45,9.53-7.45,5.67,0,12.52,3.87,12.52,10.13a13.85,13.85,0,0,1-1.19,5.66c-11.62,23.54-29.21,39-60.5,39-44.4,0-68.84-34.27-68.84-79.27,0-44.4,25-78.67,69.14-78.67,44.7,0,63.48,40.53,63.48,64.66,0,13.12-4.18,19.08-17.59,19.08Zm84.33-17.88c3,0,4.47-2.09,4.47-5.07a20.76,20.76,0,0,0-.59-4.47c-4.77-21.46-17.59-38.14-41.13-38.14-24.44,0-42.32,17-46.49,47.68Z" transform="translate(-150.5 -88.39)"/><path class="cls-7" d="M1202.41,258.24" transform="translate(-150.5 -88.39)"/><path class="cls-7" d="M1147.67,131.51" transform="translate(-150.5 -88.39)"/><path class="cls-6" d="M786.58,391.57a24,24,0,0,1,1.49,6.86c0,8.34-7.16,11.92-14.31,11.92-4.77,0-8.34-2.68-10.73-9.84-6.55-19.07-23.84-40.82-59.6-40.82-44.7,0-73,35.46-73,95.36,0,59.6,28,96.85,72.71,96.85,36.06,0,53.94-22.65,62.58-48.87,2.39-6.56,5.67-10.43,11-10.43,6.86,0,14,3.87,14,11.32a22.44,22.44,0,0,1-1.19,7.15c-9.24,26.53-32.19,62-86.43,62-64.07,0-97.14-50.66-97.14-118,0-67.65,33.67-116.52,97.44-116.52C749,338.53,776.44,364.75,786.58,391.57Z" transform="translate(-150.5 -88.39)"/><path class="cls-6" d="M860.47,569.18c-25.63,0-33.37-8.94-33.37-31.58V373.69c0-22.94,7.74-31.59,33.37-31.59h39.34c74.2,0,110,44.71,110,112.65,0,67-35.16,114.43-109.07,114.43ZM900.7,548c54.84,0,84.64-34,84.64-93.28,0-59.6-30.1-91.79-85.53-91.79H865.24c-10.13,0-14,3.58-14,12.82V535.21c0,9.54,3.88,12.82,14,12.82Z" transform="translate(-150.5 -88.39)"/><path class="cls-6" d="M1230.29,553.69c0,12.51-3,17.58-11.92,17.58-9.54,0-13.11-4.47-22-17.58l-92.68-134.4c-11-15.8-20-32.48-30.7-50.07,1.19,18.78,1.49,39,1.49,58.41l.9,131.42c0,8.64-5.67,12.22-12.52,12.22-6.56,0-11.92-3.58-11.92-12.22V357.6c0-11.62,4.47-17.28,14.6-17.28,11,0,14.9,5.66,23.25,17.28L1183.5,495c9.54,13.71,18.18,30.69,25,44.7-1.19-17.58-2.08-37.55-2.08-56.92l-.6-129.93c0-8.34,5.37-12.51,11.92-12.51s12.52,4.17,12.52,12.51Z" transform="translate(-150.5 -88.39)"/><rect class="cls-8" x="1" y="505.17" width="1770" height="16.43"/><path class="cls-6" d="M1294.91,570.08a11.6,11.6,0,0,1-3.91.85,6,6,0,0,1-5.78-3.57,10.24,10.24,0,0,1-1-4.08c0-2.89,1.7-5.1,4.76-6.46a168.57,168.57,0,0,0,64.43-50.32c-15.3-13.43-30.77-24.48-48.11-36.21a5.82,5.82,0,0,1-2.72-5.1,8.12,8.12,0,0,1,1.7-4.76,6.92,6.92,0,0,1,5.44-2.55,9.22,9.22,0,0,1,5.27,1.7,433.43,433.43,0,0,1,46.92,34.85,176.23,176.23,0,0,0,23.63-55.76c.85-4.08,2.55-6.46,6-6.46a12.56,12.56,0,0,1,3.23.51c3.74,1,5.78,3.74,5.78,7.14a16.75,16.75,0,0,1-.34,2.89,212.7,212.7,0,0,1-27,61.71,273,273,0,0,1,34.34,37.06,9.16,9.16,0,0,1,1.87,5.44,6.85,6.85,0,0,1-2.89,5.61,7.09,7.09,0,0,1-4.76,1.87,7.93,7.93,0,0,1-6.29-3.4,354,354,0,0,0-31.11-34.34C1343,543.73,1317.52,560.05,1294.91,570.08Z" transform="translate(-150.5 -88.39)"/><path class="cls-6" d="M1446.72,496.64c-3.91,0-6-3.06-6-7,0-3.74,2-6.63,6.12-6.63h132.6c4.25,0,6.12,2.89,6.12,7,0,3.74-1.87,6.63-5.95,6.63h-53.89c-.17,20.4-4.59,36.89-13.26,50.15-9,14.28-23.8,24.14-41,28.73a15.16,15.16,0,0,1-3.74.51c-3.06,0-5.27-1.19-6.29-4.08a9.63,9.63,0,0,1-.51-3.06,6.74,6.74,0,0,1,4.93-6.8c15-3.74,27.54-12.41,34.51-24.14,6.63-10.71,10-23.63,10.2-41.31ZM1552,440.2c4.25,0,6.12,3.06,6.12,7.31,0,4.08-2.21,6.8-6.12,6.8h-90.61c-3.91,0-6.12-3.4-6.12-7.14,0-3.91,2-7,6.12-7Zm11.22-13.77a6.8,6.8,0,0,1,4.76,2.38c4.59,4.93,10.2,13.94,12.92,20.06a10.27,10.27,0,0,1,.85,4.08c0,3.06-2.89,4.76-5.78,4.76a4.6,4.6,0,0,1-4.59-3.06c-3.23-6.63-7.31-14.11-11.73-19.55a5.61,5.61,0,0,1-1.53-4.08C1558.07,428.64,1560.45,426.43,1563.17,426.43Zm19.89-7.65A7,7,0,0,1,1588,421c4.59,4.93,9.86,13.43,12.58,19.55a9.91,9.91,0,0,1,.85,4.25,5,5,0,0,1-5.27,4.76c-2.55,0-3.91-1.36-4.76-3.4a104.53,104.53,0,0,0-11.39-19,6.26,6.26,0,0,1-1.7-4.25C1578.3,420.48,1581,418.78,1583.06,418.78Z" transform="translate(-150.5 -88.39)"/><path class="cls-6" d="M1696.62,570.08c0,3.57-3.74,5.95-7.14,5.95s-6.8-2.21-6.8-6.12v-59.5a244.55,244.55,0,0,1-46.58,22.27,11.55,11.55,0,0,1-3.23.51,5.73,5.73,0,0,1-5.78-4.08,9.63,9.63,0,0,1-.51-3.06,6.32,6.32,0,0,1,4.59-6.29,238.24,238.24,0,0,0,51.68-25.16c14.79-9.52,26-19,36.72-31.28a5.39,5.39,0,0,1,4.42-2.21,8.44,8.44,0,0,1,5.1,2.21,7.17,7.17,0,0,1,2.38,5.1,8,8,0,0,1-1.87,4.76c-8.33,9.52-20.4,19.89-33,29.41Z" transform="translate(-150.5 -88.39)"/><path class="cls-6" d="M1903.34,440c7.65,0,12.07,2.55,15.13,6.46a15.82,15.82,0,0,1,2.89,9.52,26.5,26.5,0,0,1-2.55,10.71c-8.67,18.36-27.37,34.68-44.54,41.31a10.72,10.72,0,0,1-3.74.85,6.29,6.29,0,0,1-5.78-3.23,7.75,7.75,0,0,1-1-3.74,7.08,7.08,0,0,1,4.25-6.46c15-6.46,29.24-18.53,37.06-33a11.55,11.55,0,0,0,1.19-4.25c0-2.38-1.7-4.08-5.61-4.08H1788.76c-4.08,0-6.12-2.55-6.12-7s2.21-7.14,6.12-7.14Zm-48.79,36.38c-.17,29.75-3.91,46.58-10.71,60.18-9.35,18.87-25.67,31.28-44.2,37.4a8.88,8.88,0,0,1-3.57.68c-2.72,0-4.76-1.36-6.12-4.42a8.65,8.65,0,0,1-.68-3.4c0-2.72,1.53-4.93,4.93-6.12,16.15-5.44,29.58-16.32,36.38-30.94,5.78-12.41,8.67-26.69,8.67-53,0-4.93,3.23-7.31,7.82-7.31S1854.55,471.82,1854.55,476.41Z" transform="translate(-150.5 -88.39)"/></svg>