<svg id="レイヤー_1" data-name="レイヤー 1" xmlns="http://www.w3.org/2000/svg" viewBox="0 0 78.24 17.47"><ellipse cx="64.02" cy="10.19" rx="1.5" ry="2" style="fill:#ffec00"/><ellipse cx="3.79" cy="12.22" rx="2.27" ry="3.03" style="fill:#3be947"/><ellipse cx="2.67" cy="12.9" rx="1.85" ry="2.8" style="fill:#3be947"/><ellipse cx="4.37" cy="11.19" rx="1.65" ry="2.5" style="fill:#3be947"/><ellipse cx="6.8" cy="10.39" rx="1.58" ry="2.1" style="fill:#ffec00"/><ellipse cx="8" cy="9.29" rx="1.58" ry="2.1" style="fill:#ffec00"/><ellipse cx="8.77" cy="8.86" rx="1.25" ry="1.67" style="fill:#ffec00"/><ellipse cx="25.72" cy="14.79" rx="2.8" ry="2.1" style="fill:#3be947"/><path d="M9.53,2.23c.13.06.21.15.21.25a.44.44,0,0,1-.12.29,2,2,0,0,0-.28.84c-.08.47-.14.87-.21,1.35A43.37,43.37,0,0,0,15,4.06c.15,0,.21,0,.25.14a3,3,0,0,1,.11.8.24.24,0,0,1-.23.25,43.72,43.72,0,0,1-6.16.93c-.1,1.11-.18,2-.21,3a15.65,15.65,0,0,1,3.83-.59,4.72,4.72,0,0,0,.37-1.76,5.47,5.47,0,0,1,1.18.56c.17.13.25.23.25.34s-.15.27-.23.42-.21.36-.31.57c3,.44,4.68,2.41,4.68,4.83,0,3.29-2.94,5-6.09,5.71A.38.38,0,0,1,11.9,19a2,2,0,0,0-.73-.78,12,12,0,0,0,4.09-1.55,3.85,3.85,0,0,0,1.81-3.34c0-2.25-1.76-3.43-3.61-3.66a23.3,23.3,0,0,1-4.07,5.76,9.68,9.68,0,0,0,.44,1.17c.06.15,0,.21-.11.32a3.78,3.78,0,0,1-.78.42c-.12,0-.21,0-.27-.11a9.64,9.64,0,0,1-.36-1A7.17,7.17,0,0,1,4.37,18c-1.39,0-1.89-1-1.89-2.14,0-2.14,1.74-4.71,5-6.26,0-1.2.11-2.31.17-3.36-1.2.06-2,.09-2.58.09a5.52,5.52,0,0,1-1-.07c-.19,0-.25-.06-.27-.27s-.06-.59-.08-1a30.56,30.56,0,0,0,4.07,0c.08-.73.15-1.28.19-1.82a4.62,4.62,0,0,0-.07-1.41A5.58,5.58,0,0,1,9.53,2.23ZM3.78,15.71a.87.87,0,0,0,.92,1,6.14,6.14,0,0,0,3.24-1.64,26.31,26.31,0,0,1-.47-4.2C5,12.24,3.78,14.22,3.78,15.71ZM12.2,9.64a11.21,11.21,0,0,0-3.55.65A22,22,0,0,0,9,14.18,21.16,21.16,0,0,0,12.2,9.64Z" transform="translate(-2.48 -1.81)"/><path d="M30.39,11A40.62,40.62,0,0,1,25.56,11c-.17,0-.21-.06-.23-.25a7.49,7.49,0,0,1-.07-1.07,31.71,31.71,0,0,0,5.08.15c0-1,0-2.12,0-3.13a40.23,40.23,0,0,1-5.56-.11c-.13,0-.17-.06-.19-.21a7.76,7.76,0,0,1-.08-1.09,36.06,36.06,0,0,0,5.83.17c0-.86,0-1.45,0-2.23a4.83,4.83,0,0,0-.19-1.38,8.66,8.66,0,0,1,1.66.27.33.33,0,0,1,.19.48,2,2,0,0,0-.25,1c0,.67,0,1.13-.06,1.85a50.69,50.69,0,0,0,5.12-.69c.17-.05.21,0,.23.14a8.3,8.3,0,0,1,.06.93c0,.16-.08.21-.14.21-1.64.27-3.34.48-5.27.61,0,1,0,2.12,0,3.1a33.71,33.71,0,0,0,4.64-.61c.14,0,.21,0,.23.11s0,.65,0,1c0,.12-.06.19-.21.21a38,38,0,0,1-4.64.56c0,1.31.06,2.4.14,3.66a16.8,16.8,0,0,1,5.61,2.71c.11.08.15.16.08.35a2.64,2.64,0,0,1-.52.9c-.1.13-.19.15-.31.07A15.73,15.73,0,0,0,31.92,16c0,2.35-1.22,3.28-3.76,3.28s-3.72-1-3.72-2.5c0-1.37,1.43-2.56,3.87-2.56a13.87,13.87,0,0,1,2.2.16C30.45,13.17,30.41,12.24,30.39,11Zm-2.08,4.32c-1.77,0-2.65.57-2.65,1.32S26.48,18,28,18a2.85,2.85,0,0,0,2.14-.65,2.31,2.31,0,0,0,.38-1.71A10.37,10.37,0,0,0,28.31,15.35Z" transform="translate(-2.48 -1.81)"/><path d="M54,5.36c-3.15.5-5.88.94-8.53,1.49a4.62,4.62,0,0,0-1.26.36,1.15,1.15,0,0,1-.39.14.35.35,0,0,1-.3-.19,11.57,11.57,0,0,1-.59-1.49,16.25,16.25,0,0,0,2.61-.25c3.13-.5,7.39-1.13,13-1.83.21,0,.32.05.36.17a6.28,6.28,0,0,1,.13,1c0,.19-.07.23-.28.25a8.85,8.85,0,0,0-3.06.63c-3.07,1.22-5.42,3.8-5.42,6.62,0,3.48,3,4.51,6.11,4.76.28,0,.34.07.34.23a5.48,5.48,0,0,1-.13,1c0,.23-.1.32-.33.3-3.55-.32-7.37-1.83-7.37-6.07,0-3,1.82-5.4,5.12-7.14Z" transform="translate(-2.48 -1.81)"/><path d="M68,3.47a4.45,4.45,0,0,0-.23-1.66,7.79,7.79,0,0,1,1.66.25c.16.06.27.17.27.27a.78.78,0,0,1-.13.42,1.85,1.85,0,0,0-.14.65c-.07.7-.09,1.12-.11,1.94a29.6,29.6,0,0,0,3.34-.63c.21,0,.23,0,.25.14s.06.59.09.91a.23.23,0,0,1-.17.25,24.3,24.3,0,0,1-3.55.63c-.06,1.51-.08,2.77-.13,4.37a4,4,0,0,1,.11,1.09,3,3,0,0,1-1,2.41,4.3,4.3,0,0,0-.46,1.66c0,1.11.63,1.62,3.67,1.62,3.65,0,5-1.05,5-2.8a8,8,0,0,0-.53-2.85,4.76,4.76,0,0,0,1.3.38.35.35,0,0,1,.32.27,8.81,8.81,0,0,1,.36,2.54c0,2.44-1.91,3.8-6.43,3.8-3.48,0-5-.78-5-2.62a4.28,4.28,0,0,1,.32-1.64,2.3,2.3,0,0,1-.38,0,2.5,2.5,0,0,1-2.35-2.77,2.67,2.67,0,0,1,2.44-2.88,1.89,1.89,0,0,1,1.42.48c0-1,0-2,.07-3a33.93,33.93,0,0,1-3.85.07c-.16,0-.21,0-.23-.21s-.06-.7-.08-1.09A25.53,25.53,0,0,0,68,5.5C68,4.71,68,4,68,3.47ZM65.2,12.08a1.46,1.46,0,0,0,1.52,1.68c.81,0,1.28-.68,1.28-1.79a1.46,1.46,0,0,0-1.37-1.62C65.79,10.35,65.2,11,65.2,12.08ZM76.56,5.92a.2.2,0,0,1,.28-.06,11.13,11.13,0,0,1,3.82,2.81.19.19,0,0,1,0,.28,5.28,5.28,0,0,1-.72.82c-.1.12-.19.1-.29,0a10.7,10.7,0,0,0-3.84-2.92C76.08,6.49,76.37,6.11,76.56,5.92Z" transform="translate(-2.48 -1.81)"/></svg>