<svg id="レイヤー_1" data-name="レイヤー 1" xmlns="http://www.w3.org/2000/svg" viewBox="0 0 66 16.69"><path d="M9.24,12.53a5.12,5.12,0,0,1,3.62-5.08A.22.22,0,0,0,13,7.24V5.51a.14.14,0,0,0-.14-.14h-1a.84.84,0,0,1,0-1.68h1A.16.16,0,0,0,13,3.52v-.8a.84.84,0,1,1,1.68,0v.8a.17.17,0,0,0,.15.17h2a.84.84,0,0,1,0,1.68h-2a.15.15,0,0,0-.15.14V7a.15.15,0,0,0,.15.15c.17,0,.69,0,.86,0a7.18,7.18,0,0,1,1.22.08.11.11,0,0,0,.14-.06.81.81,0,0,1,1-.54.89.89,0,0,1,.59,1.11.18.18,0,0,0,.08.19,5.21,5.21,0,0,1,2.71,4.81,7.39,7.39,0,0,1-2,5.06,1.43,1.43,0,0,1-1.62.33A.67.67,0,0,1,17.58,17a6,6,0,0,0,2.16-4.28,3.75,3.75,0,0,0-1.64-3.3.12.12,0,0,0-.18.06c-1.29,2.73-3.57,4.58-6.66,6.16a1.08,1.08,0,0,1-1.45-.51A5.48,5.48,0,0,1,9.24,12.53Zm1.68.14a4.57,4.57,0,0,0,.23,1.05.13.13,0,0,0,.19.09,10.14,10.14,0,0,0,5-4.83.11.11,0,0,0-.08-.17,4.09,4.09,0,0,0-.84-.1,4.73,4.73,0,0,0-.53,0,.19.19,0,0,0-.15.19v1.24a.86.86,0,0,1-1.72,0V9.42c0-.08-.08-.13-.12-.08A3.39,3.39,0,0,0,10.92,12.67Z" transform="translate(-9.24 -1.57)"/><path d="M34.48,9.31a.16.16,0,0,0-.16.15v3.8a.19.19,0,0,0,.16.19,17.87,17.87,0,0,1,1.94.34A.83.83,0,0,1,37,14.84a.88.88,0,0,1-1,.58c-.48-.1-.9-.16-1.53-.27a.16.16,0,0,0-.17.15c0,1.93-.69,3-2.37,3a2.46,2.46,0,0,1-2.46-2.54c0-1.62,1.39-2.44,3-2.48a.17.17,0,0,0,.15-.17V9.46a.17.17,0,0,0-.17-.15h-3a.84.84,0,0,1-.86-.86.86.86,0,0,1,.86-.86h3a.16.16,0,0,0,.17-.14V5.87a.19.19,0,0,0-.17-.17H29.76a.84.84,0,0,1-.84-.84A.85.85,0,0,1,29.76,4h2.69a.17.17,0,0,0,.17-.17V2.43a.86.86,0,0,1,.84-.86.87.87,0,0,1,.86.86v1.4a.16.16,0,0,0,.16.17h2.08a.84.84,0,0,1,.84.86.83.83,0,0,1-.84.84H34.48a.18.18,0,0,0-.16.17V7.45a.15.15,0,0,0,.16.14h2.27a.86.86,0,0,1,.84.86.84.84,0,0,1-.84.86Zm-1.91,5.78a.19.19,0,0,0-.16-.19c-.68-.11-1.33.25-1.33.86a.8.8,0,0,0,.78.82C32.41,16.58,32.62,15.91,32.57,15.09Z" transform="translate(-9.24 -1.57)"/><path d="M52.17,6.23a.06.06,0,0,0-.05-.11l-6.78.15a.82.82,0,0,1-.84-.84.86.86,0,0,1,.84-.86L56.47,4.4a.84.84,0,0,1,.86.84.88.88,0,0,1-.86.86H55a.34.34,0,0,0-.14,0,5.59,5.59,0,0,0-3.59,5.55A6.69,6.69,0,0,0,52.94,16a.87.87,0,0,1-.19,1.24.92.92,0,0,1-1.28-.19,8.4,8.4,0,0,1-1.82-5.18A7.7,7.7,0,0,1,52.17,6.23Z" transform="translate(-9.24 -1.57)"/><path d="M75.06,13.74c0,2.65-1.81,4-5.38,4-2.9,0-4.64-.94-4.64-2.62,0-.11,0-.29,0-.46s-.06-.13-.12-.09a1.11,1.11,0,0,1-.76.23A2.17,2.17,0,0,1,62,12.42a2.47,2.47,0,0,1,2.77-2.54A.14.14,0,0,0,65,9.76V6.48a.17.17,0,0,0-.17-.15H63.3a.84.84,0,0,1-.86-.86.86.86,0,0,1,.86-.86h1.49A.16.16,0,0,0,65,4.46V2.89a.85.85,0,1,1,1.7,0V4.46a.16.16,0,0,0,.17.15h2.45a.86.86,0,0,1,.84.86.84.84,0,0,1-.84.86H66.83a.17.17,0,0,0-.17.15V10.7a.37.37,0,0,0,.06.21A3,3,0,0,1,67,12.74a8.68,8.68,0,0,0-.21,2c.11.84.67,1.33,2.84,1.33,2.77-.07,3.9-.76,3.84-2.65a8.74,8.74,0,0,1-.11-.94.72.72,0,0,1,.78-.78,1,1,0,0,1,.88.94ZM63.57,12.38c0,.55.4.82.76.73s.67-.54.56-1.28a.43.43,0,0,0-.42-.31A.81.81,0,0,0,63.57,12.38Zm11.67-7a5.67,5.67,0,0,1-.08,1,.91.91,0,0,1-1,.88.77.77,0,0,1-.67-.88,3.21,3.21,0,0,0,.08-1,.84.84,0,0,1,.82-.82A.8.8,0,0,1,75.24,5.43Z" transform="translate(-9.24 -1.57)"/></svg>