<svg id="レイヤー_1" data-name="レイヤー 1" xmlns="http://www.w3.org/2000/svg" viewBox="0 0 75.91 17.7"><path d="M16,16.57a11.19,11.19,0,0,1-4.79,1.94l-.27-.82A10.9,10.9,0,0,0,15.25,16a4.5,4.5,0,0,0,2.31-3.76A3.4,3.4,0,0,0,16.74,10a4.22,4.22,0,0,0-2.2-1.24,18.4,18.4,0,0,1-3.68,5.15C9,15.69,7.21,16.62,5.45,16.62A2.27,2.27,0,0,1,4,16.13a1.58,1.58,0,0,1-.61-1.32,5.28,5.28,0,0,1,1.76-3.53A12.85,12.85,0,0,1,8.45,8.85a37,37,0,0,1,.29-4.12A30.8,30.8,0,0,0,4.15,6.08l-.3-.76a28.67,28.67,0,0,1,5-1.43c.1-.77.27-1.78.48-3.06l.8.12c-.19,1.2-.34,2.12-.42,2.78a36.63,36.63,0,0,1,6-.59l0,.82a37.36,37.36,0,0,0-6.18.6,35.05,35.05,0,0,0-.31,3.93,10,10,0,0,1,3.78-.75,5.86,5.86,0,0,1,3.69,1.13,4,4,0,0,1,1.64,3.4A5.2,5.2,0,0,1,16,16.57ZM8.45,9.77a12,12,0,0,0-2.73,2.1,4.54,4.54,0,0,0-1.55,2.94c0,.65.42,1,1.26,1a6.17,6.17,0,0,0,3.44-1.35A34.56,34.56,0,0,1,8.45,9.77Zm4.49-1.22a9.13,9.13,0,0,0-3.69.82,35.75,35.75,0,0,0,.35,4.54A16.17,16.17,0,0,0,13.68,8.6C13.45,8.58,13.19,8.55,12.94,8.55Z" transform="translate(-3.37 -0.81)"/><path d="M38,4.69c-.52,0-1.05,0-1.61,0a37.79,37.79,0,0,0-3.91.23c.17,1,.29,2,.4,2.88a38.83,38.83,0,0,1,4.05-.23c.32,0,.63,0,.95,0l0,.82c-.32,0-.61,0-.93,0-1.24,0-2.56.07-4,.21a25.76,25.76,0,0,1,.15,2.75c0,.45,0,.93-.06,1.43a8.54,8.54,0,0,1,4.24,3.72l-.72.4a7.6,7.6,0,0,0-3.63-3.28c-.42,2.9-1.72,4.35-3.92,4.35a4.36,4.36,0,0,1-2.44-.65,2.39,2.39,0,0,1-1.15-2.12,2.67,2.67,0,0,1,1.34-2.38A5,5,0,0,1,29.49,12a9,9,0,0,1,2.71.44c0-.46,0-.86,0-1.18,0-.79,0-1.68-.12-2.64a41.5,41.5,0,0,0-6.39,1.22l-.21-.78A41.17,41.17,0,0,1,32,7.84c-.1-.9-.23-1.85-.4-2.88a58.59,58.59,0,0,0-6.9,1.28l-.21-.79a56.62,56.62,0,0,1,7-1.28c-.15-.82-.34-1.87-.61-3.2l.8-.16c.23,1.17.44,2.26.6,3.25a39.48,39.48,0,0,1,4-.23q.88,0,1.71.06Zm-8.46,8.15a4.42,4.42,0,0,0-2.18.52,2,2,0,0,0-1.14,1.79,1.69,1.69,0,0,0,.93,1.51,3.37,3.37,0,0,0,1.8.46q2.75,0,3.22-3.84A8,8,0,0,0,29.49,12.84Z" transform="translate(-3.37 -0.81)"/><path d="M58.85,3.68a8.11,8.11,0,0,0-2.52.55A10.84,10.84,0,0,0,51.92,7a6.4,6.4,0,0,0-2,4.62,4.6,4.6,0,0,0,2.12,4A9,9,0,0,0,56.45,17l-.06.82a9.41,9.41,0,0,1-5-1.68,5.28,5.28,0,0,1-2.33-4.51A7.07,7.07,0,0,1,51,6.79a12.55,12.55,0,0,1,4.31-3A99.12,99.12,0,0,0,44,6.16l-.21-.78A64.09,64.09,0,0,1,59.33,2.86v.82Z" transform="translate(-3.37 -0.81)"/><path d="M77.56,15.61A5.16,5.16,0,0,1,73,17.67a4.12,4.12,0,0,1-3.8-2,1.66,1.66,0,0,1-1.78,1.18,2.68,2.68,0,0,1-2.21-1.12,3.89,3.89,0,0,1-.79-2.41,3.28,3.28,0,0,1,.67-2.06A2.26,2.26,0,0,1,67,10.28a2,2,0,0,1,1.53.67c.06-1.53.21-3.19.42-4.94a27.06,27.06,0,0,0-4.26,1l-.25-.78a30.2,30.2,0,0,1,4.62-1c.14-1.23.35-2.58.58-4l.8.15c-.23,1.36-.42,2.6-.57,3.76a27.79,27.79,0,0,1,4.06-.34h.42l0,.82-.45,0a31.13,31.13,0,0,0-4.11.38,57.13,57.13,0,0,0-.46,6.72c0,.14,0,.33,0,.56a3.88,3.88,0,0,0,1.09,2.69,3.63,3.63,0,0,0,2.67,1,4.24,4.24,0,0,0,3.92-2,9.6,9.6,0,0,0,1.07-4.46l.8.19A9.45,9.45,0,0,1,77.56,15.61ZM67,11.09a1.47,1.47,0,0,0-1.3.72,2.33,2.33,0,0,0-.47,1.47,3,3,0,0,0,.57,1.82,1.91,1.91,0,0,0,1.64.91,1,1,0,0,0,1-.72,5.18,5.18,0,0,0,.12-1.36C68.57,12,68.05,11.09,67,11.09ZM78.63,5.87a14.16,14.16,0,0,0-2.9-2.8l.46-.65a14.24,14.24,0,0,1,3.09,3Z" transform="translate(-3.37 -0.81)"/></svg>