<svg id="レイヤー_1" data-name="レイヤー 1" xmlns="http://www.w3.org/2000/svg" viewBox="0 0 53.73 15.06"><path d="M27,11.6a5.51,5.51,0,0,1,.9,3,4.77,4.77,0,0,1-.32,1.77.41.41,0,0,1-.6.27.41.41,0,0,1-.28-.61,3.41,3.41,0,0,0,.28-1.41,4.6,4.6,0,0,0-1.66-3.5,7.47,7.47,0,0,0-2.44-.88,8.67,8.67,0,0,1-1.32,2.14c.06.12.15.25.21.35a.44.44,0,0,1-.23.63.43.43,0,0,1-.63-.23.07.07,0,0,1,0-.06,3.74,3.74,0,0,1-2.4,1.11,1.54,1.54,0,0,1-1.15-.48,1.42,1.42,0,0,1-.51-1.13A2.59,2.59,0,0,1,17.47,11a4.58,4.58,0,0,1,2.45-1.59c0-1.79.11-3.21.21-4.35-.82-.1-1.61-.23-2.35-.36a.38.38,0,0,1-.31-.56c.1-.3.27-.42.56-.34.8.15,1.54.25,2.19.32.08-.8.19-1.52.29-2.17a.41.41,0,0,1,.4-.35c.34,0,.53.14.53.44a.44.44,0,0,1,0,.19c-.1.63-.18,1.28-.25,2A13.83,13.83,0,0,0,24,4.11a.41.41,0,0,1,.56.33c.09.34,0,.51-.33.57a13.65,13.65,0,0,1-3.17.15c-.09,1.13-.15,2.49-.19,4.07a6.35,6.35,0,0,1,1.38,0c.15-.34.23-.59.28-.72a.4.4,0,0,1,.61-.27.43.43,0,0,1,.25.61,2.92,2.92,0,0,0-.19.5,10.46,10.46,0,0,1,1.32.36A5,5,0,0,1,27,11.6Zm-6.55.59A6.59,6.59,0,0,1,20,10.43c-1.52.5-2.25,1.34-2.21,2.47a1,1,0,0,0,.71.3A2.94,2.94,0,0,0,20.41,12.19Zm1.44-2.06a4.53,4.53,0,0,0-1,.09,5.39,5.39,0,0,0,.25,1.15A7.24,7.24,0,0,0,21.85,10.13Z" transform="translate(-16.79 -1.61)"/><path d="M50.13,6.52l-.34.67a9.89,9.89,0,0,1-1,1.51,12,12,0,0,0-1,1.47,3.44,3.44,0,0,0-.47,1.7,3.87,3.87,0,0,0,.57,2,4.42,4.42,0,0,0,1.39,1.59c.31.11.37.3.29.61a.41.41,0,0,1-.59.3,2.27,2.27,0,0,1-1-.72c-.21-.35-.47-.67-.7-1a4.8,4.8,0,0,1-1-2.67,5.82,5.82,0,0,1,1.26-3.26L49.12,6.5a20.32,20.32,0,0,0-5.18-.65c-.55,0-1,0-1.43,0A.42.42,0,0,1,42,5.47c0-.31.11-.48.42-.5.66,0,1.2-.07,1.66-.07a19.16,19.16,0,0,1,5.36.7l.29.08a.43.43,0,0,1,.27.21l.07.11A.58.58,0,0,1,50.13,6.52Z" transform="translate(-16.79 -1.61)"/><path d="M38.16,7.38l-3,.84a27.2,27.2,0,0,1-.08,3L35,12.42a7.08,7.08,0,0,1,1.89.52.42.42,0,0,1,.25.63c-.1.28-.29.36-.6.26a6.35,6.35,0,0,0-1.6-.47,3.69,3.69,0,0,1-1.13,2.73l-.26.11a.6.6,0,0,1-.27,0l-.61-.34a1.76,1.76,0,0,1-1.05-1.66c.09-1.13.91-1.72,2.46-1.82.15-2.21.21-3.51.21-4a8.74,8.74,0,0,1-1.39.25.42.42,0,0,1-.54-.38.4.4,0,0,1,.38-.54c.58-.09,1.09-.17,1.53-.27,0-1.24,0-2.08,0-2.54a8,8,0,0,0-.89.21.41.41,0,0,1-.56-.34.4.4,0,0,1,.33-.57A9.7,9.7,0,0,1,34.22,4c0-.44,0-.78.06-1a.4.4,0,0,1,.55-.37.42.42,0,0,1,.37.52c0,.25,0,.48,0,.72h.32a.41.41,0,0,1,.42.52c0,.32-.19.44-.51.42a.59.59,0,0,0-.27,0c0,.53,0,1.32,0,2.41,1.14-.31,2.06-.56,2.77-.77a.41.41,0,0,1,.57.33C38.56,7.11,38.48,7.3,38.16,7.38Zm-4.17,6a2.77,2.77,0,0,0-1.26.42.75.75,0,0,0-.21.49c0,.29.29.65.84,1A3.84,3.84,0,0,0,34,13.34Z" transform="translate(-16.79 -1.61)"/><path d="M67.46,16c0,.34-.19.48-.48.46a38.84,38.84,0,0,1-4.87-.67,9.26,9.26,0,0,1-4.27-2.27,1.58,1.58,0,0,1-.31-.44,1.18,1.18,0,0,1-1,.32c-.84-.11-1.26-.74-1.26-1.83s.4-1.45,1.2-1.45a1.34,1.34,0,0,1,1.07.72c0-.3.06-.63.09-1,0-.86,0-1.85,0-3-.8.15-1.31.23-1.56.29a.41.41,0,0,1-.56-.33c-.09-.34,0-.51.33-.57L57.63,6c0-.88-.06-1.4-.06-1.55,0-.31.13-.46.46-.46s.49.15.49.46c0,.55,0,1,0,1.37.31-.07.73-.17,1.21-.32a.41.41,0,0,1,.57.36.4.4,0,0,1-.33.54l-1.39.36c.06,1,.1,1.68.1,2.14a8.06,8.06,0,0,1-.56,3.19c.12.36.25.63.33.82a7.5,7.5,0,0,0,3.91,2,44.54,44.54,0,0,0,4.66.63A.42.42,0,0,1,67.46,16Zm-10.33-4c-.23-.6-.44-.92-.67-.92a.17.17,0,0,0-.17.11,1.2,1.2,0,0,0,.23,1.21c.15.15.3.11.44-.12ZM70.42,9.75a.42.42,0,0,1-.65.15,10.14,10.14,0,0,0-1.09-.55c-.23-.06-.36-.18-.36-.37,0-.36.15-.55.42-.55a.5.5,0,0,1,.17,0,9.93,9.93,0,0,1,1.36.65A.41.41,0,0,1,70.42,9.75Z" transform="translate(-16.79 -1.61)"/></svg>